<svg width="30" height="30" viewBox="0 0 30 30" fill="none" xmlns="http://www.w3.org/2000/svg">
<path fill-rule="evenodd" clip-rule="evenodd" d="M10 8.75C10 7.42392 10.5268 6.15215 11.4645 5.21447C12.4021 4.27678 13.6739 3.75 15 3.75C16.3261 3.75 17.5979 4.27678 18.5355 5.21447C19.4732 6.15215 20 7.42392 20 8.75C20 10.0761 19.4732 11.3479 18.5355 12.2855C17.5979 13.2232 16.3261 13.75 15 13.75C13.6739 13.75 12.4021 13.2232 11.4645 12.2855C10.5268 11.3479 10 10.0761 10 8.75ZM10 16.25C8.3424 16.25 6.75269 16.9085 5.58058 18.0806C4.40848 19.2527 3.75 20.8424 3.75 22.5C3.75 23.4946 4.14509 24.4484 4.84835 25.1517C5.55161 25.8549 6.50544 26.25 7.5 26.25H22.5C23.4946 26.25 24.4484 25.8549 25.1517 25.1517C25.8549 24.4484 26.25 23.4946 26.25 22.5C26.25 20.8424 25.5915 19.2527 24.4194 18.0806C23.2473 16.9085 21.6576 16.25 20 16.25H10Z" fill="#242760"/>
</svg>
