<svg width="30" height="30" viewBox="0 0 30 30" fill="none" xmlns="http://www.w3.org/2000/svg">
<g clip-path="url(#clip0_3_13)">
<path d="M7.5 22.5L4.625 25.375C4.22917 25.7708 3.77584 25.8596 3.265 25.6413C2.75417 25.4229 2.49917 25.0321 2.5 24.4688V5C2.5 4.3125 2.745 3.72375 3.235 3.23375C3.725 2.74375 4.31334 2.49917 5 2.5H17.625C17.5417 2.91667 17.5 3.33333 17.5 3.75C17.5 4.16667 17.5417 4.58333 17.625 5H5V20H25V9.875C25.4792 9.77083 25.9271 9.63 26.3438 9.4525C26.7604 9.275 27.1458 9.04083 27.5 8.75V20C27.5 20.6875 27.255 21.2763 26.765 21.7663C26.275 22.2563 25.6867 22.5008 25 22.5H7.5ZM16.25 17.5C16.6042 17.5 16.9013 17.38 17.1413 17.14C17.3813 16.9 17.5008 16.6033 17.5 16.25C17.5 15.8958 17.38 15.5987 17.14 15.3587C16.9 15.1187 16.6033 14.9992 16.25 15H8.75C8.39584 15 8.09875 15.12 7.85875 15.36C7.61875 15.6 7.49917 15.8967 7.5 16.25C7.5 16.6042 7.62 16.9013 7.86 17.1413C8.1 17.3813 8.39667 17.5008 8.75 17.5H16.25ZM21.25 13.75C21.6042 13.75 21.9013 13.63 22.1413 13.39C22.3813 13.15 22.5008 12.8533 22.5 12.5C22.5 12.1458 22.38 11.8487 22.14 11.6087C21.9 11.3687 21.6033 11.2492 21.25 11.25H8.75C8.39584 11.25 8.09875 11.37 7.85875 11.61C7.61875 11.85 7.49917 12.1467 7.5 12.5C7.5 12.8542 7.62 13.1513 7.86 13.3913C8.1 13.6313 8.39667 13.7508 8.75 13.75H21.25ZM18.75 7.5H8.75C8.39584 7.5 8.09875 7.62 7.85875 7.86C7.61875 8.1 7.49917 8.39667 7.5 8.75C7.5 9.10417 7.62 9.40125 7.86 9.64125C8.1 9.88125 8.39667 10.0008 8.75 10H22.5V9.875C21.7292 9.70833 21.0258 9.42167 20.39 9.015C19.7542 8.60833 19.2075 8.10333 18.75 7.5ZM23.75 7.5C22.7083 7.5 21.8229 7.13542 21.0938 6.40625C20.3646 5.67708 20 4.79167 20 3.75C20 2.70833 20.3646 1.82292 21.0938 1.09375C21.8229 0.364583 22.7083 0 23.75 0C24.7917 0 25.6771 0.364583 26.4063 1.09375C27.1354 1.82292 27.5 2.70833 27.5 3.75C27.5 4.79167 27.1354 5.67708 26.4063 6.40625C25.6771 7.13542 24.7917 7.5 23.75 7.5Z" fill="#C7C6C5"/>
</g>
<defs>
<clipPath id="clip0_3_13">
<rect width="30" height="30" fill="white"/>
</clipPath>
</defs>
</svg>
