<svg width="27" height="27" viewBox="0 0 27 27" fill="none" xmlns="http://www.w3.org/2000/svg">
<path d="M13.5 13.5C14.1187 13.5 14.6486 13.2795 15.0896 12.8385C15.5306 12.3975 15.7507 11.868 15.75 11.25C15.75 10.6313 15.5295 10.1014 15.0885 9.66038C14.6475 9.21938 14.118 8.99925 13.5 9C12.8813 9 12.3514 9.2205 11.9104 9.6615C11.4694 10.1025 11.2492 10.632 11.25 11.25C11.25 11.8688 11.4705 12.3986 11.9115 12.8396C12.3525 13.2806 12.882 13.5008 13.5 13.5ZM13.5 24.75C10.4812 22.1813 8.22675 19.7955 6.7365 17.5928C5.24625 15.39 4.50075 13.3508 4.5 11.475C4.5 8.6625 5.40488 6.42188 7.21463 4.75312C9.02437 3.08437 11.1195 2.25 13.5 2.25C15.8812 2.25 17.9767 3.08437 19.7865 4.75312C21.5962 6.42188 22.5007 8.6625 22.5 11.475C22.5 13.35 21.7545 15.3893 20.2635 17.5928C18.7725 19.7963 16.518 22.182 13.5 24.75Z" fill="#544C4C"/>
</svg>
