<svg width="32" height="32" viewBox="0 0 32 32" fill="none" xmlns="http://www.w3.org/2000/svg">
<path d="M12.3333 29.3333L11.8 25.0667C11.5111 24.9555 11.2387 24.8222 10.9827 24.6667C10.7267 24.5111 10.4769 24.3444 10.2333 24.1667L6.26667 25.8333L2.60001 19.5L6.03334 16.9C6.01112 16.7444 6.00001 16.5942 6.00001 16.4493V15.5507C6.00001 15.4058 6.01112 15.2555 6.03334 15.1L2.60001 12.5L6.26667 6.16666L10.2333 7.83332C10.4778 7.65555 10.7333 7.48888 11 7.33332C11.2667 7.17777 11.5333 7.04443 11.8 6.93332L12.3333 2.66666H19.6667L20.2 6.93332C20.4889 7.04443 20.7613 7.17777 21.0173 7.33332C21.2733 7.48888 21.5231 7.65555 21.7667 7.83332L25.7333 6.16666L29.4 12.5L25.9667 15.1C25.9889 15.2555 26 15.4058 26 15.5507V16.4493C26 16.5942 25.9778 16.7444 25.9333 16.9L29.3667 19.5L25.7 25.8333L21.7667 24.1667C21.5222 24.3444 21.2667 24.5111 21 24.6667C20.7333 24.8222 20.4667 24.9555 20.2 25.0667L19.6667 29.3333H12.3333ZM16.0667 20.6667C17.3556 20.6667 18.4556 20.2111 19.3667 19.3C20.2778 18.3889 20.7333 17.2889 20.7333 16C20.7333 14.7111 20.2778 13.6111 19.3667 12.7C18.4556 11.7889 17.3556 11.3333 16.0667 11.3333C14.7556 11.3333 13.6498 11.7889 12.7493 12.7C11.8489 13.6111 11.3991 14.7111 11.4 16C11.4 17.2889 11.8498 18.3889 12.7493 19.3C13.6489 20.2111 14.7547 20.6667 16.0667 20.6667ZM16.0667 18C15.5111 18 15.0387 17.8053 14.6493 17.416C14.26 17.0267 14.0658 16.5547 14.0667 16C14.0667 15.4444 14.2613 14.972 14.6507 14.5827C15.04 14.1933 15.512 13.9991 16.0667 14C16.6222 14 17.0947 14.1947 17.484 14.584C17.8733 14.9733 18.0676 15.4453 18.0667 16C18.0667 16.5555 17.872 17.028 17.4827 17.4173C17.0933 17.8067 16.6213 18.0009 16.0667 18ZM14.6667 26.6667H17.3L17.7667 23.1333C18.4556 22.9555 19.0947 22.6942 19.684 22.3493C20.2733 22.0044 20.812 21.588 21.3 21.1L24.6 22.4667L25.9 20.2L23.0333 18.0333C23.1445 17.7222 23.2222 17.3947 23.2667 17.0507C23.3111 16.7067 23.3333 16.3564 23.3333 16C23.3333 15.6444 23.3111 15.2947 23.2667 14.9507C23.2222 14.6067 23.1445 14.2787 23.0333 13.9667L25.9 11.8L24.6 9.53332L21.3 10.9333C20.8111 10.4222 20.2725 9.99466 19.684 9.65066C19.0956 9.30666 18.4565 9.04532 17.7667 8.86666L17.3333 5.33332H14.7L14.2333 8.86666C13.5445 9.04443 12.9058 9.30577 12.3173 9.65066C11.7289 9.99555 11.1898 10.412 10.7 10.9L7.40001 9.53332L6.10001 11.8L8.96667 13.9333C8.85556 14.2667 8.77778 14.6 8.73334 14.9333C8.6889 15.2667 8.66667 15.6222 8.66667 16C8.66667 16.3555 8.6889 16.7 8.73334 17.0333C8.77778 17.3667 8.85556 17.7 8.96667 18.0333L6.10001 20.2L7.40001 22.4667L10.7 21.0667C11.1889 21.5778 11.728 22.0058 12.3173 22.3507C12.9067 22.6955 13.5453 22.9564 14.2333 23.1333L14.6667 26.6667Z" fill="#C7C6C5"/>
</svg>
